<?xml version="1.0" standalone="no"?><!DOCTYPE svg PUBLIC "-//W3C//DTD SVG 1.1//EN" "http://www.w3.org/Graphics/SVG/1.1/DTD/svg11.dtd"><svg t="1702709347638" class="icon" viewBox="0 0 1024 1024" version="1.1" xmlns="http://www.w3.org/2000/svg" p-id="712" width="64" height="64" xmlns:xlink="http://www.w3.org/1999/xlink"><path d="M522.666667 74.666667c-234.666667 0-426.666667 192-426.666667 426.666666s192 426.666667 426.666667 426.666667 426.666667-192 426.666666-426.666667-192-426.666667-426.666666-426.666666z m0 768c-187.733333 0-341.333333-153.6-341.333334-341.333334s153.6-341.333333 341.333334-341.333333 341.333333 153.6 341.333333 341.333333-153.6 341.333333-341.333333 341.333334z" p-id="713" fill="#2c2c2c"></path><path d="M693.333333 458.666667h-128v-128c0-23.466667-19.2-42.666667-42.666666-42.666667s-42.666667 19.2-42.666667 42.666667v128h-128c-23.466667 0-42.666667 19.2-42.666667 42.666666s19.2 42.666667 42.666667 42.666667h128v128c0 23.466667 19.2 42.666667 42.666667 42.666667s42.666667-19.2 42.666666-42.666667v-128h128c23.466667 0 42.666667-19.2 42.666667-42.666667s-19.2-42.666667-42.666667-42.666666z" p-id="714" fill="#2c2c2c"></path></svg>