<?xml version="1.0" standalone="no"?><!DOCTYPE svg PUBLIC "-//W3C//DTD SVG 1.1//EN" "http://www.w3.org/Graphics/SVG/1.1/DTD/svg11.dtd"><svg t="1702709441584" class="icon" viewBox="0 0 1024 1024" version="1.1" xmlns="http://www.w3.org/2000/svg" p-id="1249" xmlns:xlink="http://www.w3.org/1999/xlink" width="64" height="64"><path d="M480 241.066667h85.333333c23.466667 0 42.666667-17.066667 42.666667-40.533334s-19.2-40.533333-42.666667-40.533333h-85.333333c-23.466667 0-42.666667 17.066667-42.666667 40.533333s19.2 40.533333 42.666667 40.533334zM672 285.866667c23.466667 0 42.666667-17.066667 42.666667-40.533334v-85.333333c0-21.333333-19.2-40.533333-42.666667-40.533333s-42.666667 17.066667-42.666667 40.533333v85.333333c0 21.333333 19.2 40.533333 42.666667 40.533334zM373.333333 285.866667c23.466667 0 42.666667-17.066667 42.666667-40.533334v-85.333333c0-21.333333-19.2-40.533333-42.666667-40.533333s-42.666667 17.066667-42.666666 40.533333v85.333333c0 21.333333 19.2 40.533333 42.666666 40.533334z" p-id="1250"></path><path d="M904.533333 241.066667l-6.4-19.2c-2.133333-6.4-6.4-10.666667-10.666666-17.066667-4.266667-4.266667-8.533333-10.666667-12.8-14.933333-4.266667-4.266667-10.666667-8.533333-14.933334-12.8-6.4-4.266667-10.666667-6.4-17.066666-8.533334l-19.2-6.4c-6.4-2.133333-14.933333-2.133333-21.333334-2.133333h-27.733333c-23.466667 0-42.666667 17.066667-42.666667 40.533333 0 21.333333 19.2 40.533333 42.666667 40.533334H810.666667c2.133333 0 2.133333 0 4.266666 2.133333l2.133334 2.133333 2.133333 2.133334 2.133333 2.133333s0 2.133333 2.133334 4.266667v100.266666h-597.333334v-96-4.266666c0-2.133333 0-2.133333 2.133334-4.266667 0 0 0-2.133333 2.133333-2.133333l2.133333-2.133334 2.133334-2.133333s2.133333-2.133333 4.266666-2.133333H275.2c23.466667 0 42.666667-17.066667 42.666667-40.533334 0-21.333333-19.2-40.533333-42.666667-40.533333h-27.733333c-6.4 0-14.933333 0-21.333334 2.133333l-19.2 6.4c-10.666667 4.266667-17.066667 6.4-21.333333 10.666667-6.4 2.133333-10.666667 6.4-17.066667 10.666667-4.266667 4.266667-8.533333 10.666667-12.8 14.933333-2.133333 6.4-6.4 10.666667-8.533333 17.066667l-6.4 19.2c-2.133333 6.4-2.133333 12.8-2.133333 19.2v526.933333c0 6.4 0 12.8 2.133333 19.2l6.4 19.2c2.133333 6.4 6.4 10.666667 8.533333 17.066667 4.266667 4.266667 8.533333 10.666667 12.8 14.933333 4.266667 4.266667 10.666667 8.533333 14.933334 12.8 6.4 4.266667 10.666667 6.4 17.066666 8.533333l19.2 6.4c6.4 2.133333 14.933333 2.133333 21.333334 2.133334h558.933333c6.4 0 14.933333 0 21.333333-2.133334 6.4-2.133333 12.8-2.133333 19.2-6.4 6.4-2.133333 12.8-6.4 17.066667-8.533333 6.4-4.266667 10.666667-8.533333 14.933333-12.8 4.266667-4.266667 8.533333-8.533333 12.8-14.933333 4.266667-4.266667 6.4-10.666667 8.533334-17.066667l6.4-19.2c2.133333-6.4 2.133333-12.8 2.133333-19.2V260.266667c4.266667-6.4 4.266667-12.8 2.133333-19.2z m-83.2 546.133333v4.266667c0 2.133333 0 2.133333-2.133333 4.266666 0 0 0 2.133333-2.133333 2.133334l-2.133334 2.133333-2.133333 2.133333-2.133333 2.133334H234.666667c-2.133333 0-2.133333 0-4.266667-2.133334l-2.133333-2.133333-2.133334-2.133333-2.133333-2.133334s0-2.133333-2.133333-4.266666V437.333333h597.333333v349.866667z" p-id="1251"></path><path d="M416 603.733333h213.333333c23.466667 0 42.666667-17.066667 42.666667-40.533333s-19.2-40.533333-42.666667-40.533333h-213.333333c-23.466667 0-42.666667 17.066667-42.666667 40.533333s19.2 40.533333 42.666667 40.533333zM416 725.333333h213.333333c23.466667 0 42.666667-17.066667 42.666667-40.533333 0-21.333333-19.2-40.533333-42.666667-40.533333h-213.333333c-23.466667 0-42.666667 17.066667-42.666667 40.533333 0 21.333333 19.2 40.533333 42.666667 40.533333z" p-id="1252"></path></svg>