<?xml version="1.0" standalone="no"?><!DOCTYPE svg PUBLIC "-//W3C//DTD SVG 1.1//EN" "http://www.w3.org/Graphics/SVG/1.1/DTD/svg11.dtd"><svg t="1702716569216" class="icon" viewBox="0 0 1024 1024" version="1.1" xmlns="http://www.w3.org/2000/svg" p-id="19599" xmlns:xlink="http://www.w3.org/1999/xlink" width="64" height="64"><path d="M0 0h1024v1024H0z" fill="#FFFFFF" fill-opacity="0" p-id="19600"></path><path d="M392 112c16.569 0 30 13.431 30 30v70h180v-70c0-16.569 13.431-30 30-30h120c16.569 0 30 13.431 30 30v70h100c16.569 0 30 13.431 30 30v640c0 16.569-13.431 30-30 30H142c-16.569 0-30-13.431-30-30V242c0-16.569 13.431-30 30-30h100v-70c0-16.569 13.431-30 30-30h120zM242 276h-66v572h672V276h-66v68c0 16.569-13.431 30-30 30H632c-16.569 0-30-13.431-30-30v-68H422v68c0 16.569-13.431 30-30 30H272c-16.569 0-30-13.431-30-30v-68z m530 362c0 35.346-28.654 64-64 64H252c0-35.346 28.654-64 64-64h456zM652 484c0 35.346-28.654 64-64 64H252c0-35.346 28.654-64 64-64h336zM358 176h-52v134h52V176z m360 0h-52v134h52V176z" fill="#666666" p-id="19601"></path></svg>