<?xml version="1.0" standalone="no"?><!DOCTYPE svg PUBLIC "-//W3C//DTD SVG 1.1//EN" "http://www.w3.org/Graphics/SVG/1.1/DTD/svg11.dtd"><svg t="1702709419025" class="icon" viewBox="0 0 1024 1024" version="1.1" xmlns="http://www.w3.org/2000/svg" p-id="1089" xmlns:xlink="http://www.w3.org/1999/xlink" width="64" height="64"><path d="M416 117.333333h-213.333333c-36.266667 0-64 27.733333-64 64v213.333334c0 36.266667 27.733333 64 64 64h213.333333c36.266667 0 64-27.733333 64-64v-213.333334c0-34.133333-27.733333-64-64-64z m-21.333333 256h-170.666667v-170.666666h170.666667v170.666666zM416 544h-213.333333c-36.266667 0-64 27.733333-64 64v213.333333c0 36.266667 27.733333 64 64 64h213.333333c36.266667 0 64-27.733333 64-64v-213.333333c0-34.133333-27.733333-64-64-64z m-21.333333 256h-170.666667v-170.666667h170.666667v170.666667zM842.666667 544h-213.333334c-36.266667 0-64 27.733333-64 64v213.333333c0 36.266667 27.733333 64 64 64h213.333334c36.266667 0 64-27.733333 64-64v-213.333333c0-34.133333-27.733333-64-64-64z m-21.333334 256h-170.666666v-170.666667h170.666666v170.666667zM842.666667 117.333333h-213.333334c-36.266667 0-64 27.733333-64 64v213.333334c0 36.266667 27.733333 64 64 64h213.333334c36.266667 0 64-27.733333 64-64v-213.333334c0-34.133333-27.733333-64-64-64z m-21.333334 256h-170.666666v-170.666666h170.666666v170.666666z" p-id="1090"></path></svg>