<?xml version="1.0" standalone="no"?><!DOCTYPE svg PUBLIC "-//W3C//DTD SVG 1.1//EN" "http://www.w3.org/Graphics/SVG/1.1/DTD/svg11.dtd"><svg t="1702709474252" class="icon" viewBox="0 0 1024 1024" version="1.1" xmlns="http://www.w3.org/2000/svg" p-id="2168" xmlns:xlink="http://www.w3.org/1999/xlink" width="64" height="64"><path d="M904.533333 480l-128-270.933333c-14.933333-29.866667-44.8-49.066667-76.8-49.066667H354.133333c-32 0-61.866667 19.2-76.8 49.066667L149.333333 480c-4.266667 8.533333-6.4 17.066667-6.4 27.733333v230.4c0 57.6 46.933333 106.666667 106.666667 106.666667h554.666667c57.6 0 106.666667-46.933333 106.666666-106.666667V507.733333c0-10.666667-2.133333-19.2-6.4-27.733333z m-550.4-234.666667h345.6l102.4 215.466667H661.333333c-21.333333 0-42.666667 12.8-55.466666 32l-46.933334 78.933333h-66.133333L445.866667 490.666667c-10.666667-19.2-32-32-55.466667-32h-140.8l104.533333-213.333334z m450.133334 514.133334h-554.666667c-12.8 0-21.333333-10.666667-21.333333-21.333334v-192h153.6l46.933333 78.933334c10.666667 19.2 32 32 55.466667 32h89.6c21.333333 0 42.666667-12.8 55.466666-32l46.933334-78.933334h153.6v192c-4.266667 10.666667-14.933333 21.333333-25.6 21.333334z" p-id="2169"></path></svg>